<svg width="83" height="33" viewBox="0 0 83 33" fill="none" xmlns="http://www.w3.org/2000/svg">
  <g clip-path="url(#clip0_299_2)">
    <path
      d="M73.4275 0H83V15.4536C79.8169 15.5148 76.6301 15.4632 73.4446 15.4788C72.3518 14.2812 71.2455 13.0944 70.1454 11.9016C68.8704 10.5516 67.6566 9.1428 66.3413 7.83C66.3645 7.7304 66.3902 7.6296 66.4183 7.53C67.1041 6.9072 67.6847 6.1812 68.3277 5.5164C70.028 3.678 71.7235 1.836 73.4275 0Z"
      fill="white" />
    <path
      d="M52.6273 1.34766C55.2371 1.35246 57.8481 1.34766 60.4592 1.35006C62.2011 3.24486 63.9527 5.13006 65.6971 7.02366C65.8645 7.20006 66.01 7.40766 66.2325 7.52646C66.2484 7.63446 66.2606 7.74246 66.2704 7.85166C64.2889 9.89286 62.4015 12.0277 60.453 14.1025C57.8432 14.0977 55.2335 14.1025 52.6237 14.0989C52.6261 9.84846 52.6188 5.59806 52.6273 1.34766ZM55.1589 3.84126C55.1613 6.43086 55.1589 9.02046 55.1601 11.6101C56.5585 11.5909 57.9655 11.6485 59.359 11.5813C60.5618 10.3045 61.75 9.00966 62.9333 7.71366C61.7977 6.50766 60.6767 5.28606 59.557 4.06446C59.4507 3.96006 59.3492 3.80286 59.172 3.84006C57.8347 3.83886 56.4974 3.84006 55.1589 3.84126Z"
      fill="white" />
    <path
      d="M12.7177 11.1084C15.1698 10.98 17.6635 11.1828 20.0178 11.8956C21.25 12.2808 22.4626 12.792 23.4881 13.578C22.7058 14.7084 21.9174 15.834 21.1351 16.9656C17.9287 15.3984 14.176 14.8332 10.6678 15.63C9.05177 16.0032 7.46878 16.7712 6.41508 18.0624C5.09857 19.6404 4.75753 21.8664 5.29782 23.808C5.70976 25.3176 6.7708 26.6208 8.14109 27.4044C10.0602 28.5144 12.351 28.7784 14.5415 28.7376C16.122 28.6788 17.749 28.5732 19.222 27.9552C19.2208 26.6976 19.2232 25.44 19.2208 24.1812C17.3652 24.1704 15.5096 24.1968 13.6553 24.168C13.6663 22.8228 13.6553 21.4764 13.6614 20.1312C17.0315 20.1276 20.4004 20.1312 23.7705 20.1288C23.7791 23.5896 23.7791 27.0516 23.7717 30.5124C22.0188 31.9608 19.7085 32.4972 17.485 32.7588C14.8361 33.0336 12.1346 33.0372 9.5175 32.508C6.84292 31.9704 4.21479 30.7656 2.41421 28.7016C0.949794 27.0624 0.146686 24.9216 0 22.7592V21.1812C0.085567 20.3436 0.221252 19.5084 0.487732 18.708C1.10626 16.7304 2.4191 14.9892 4.11333 13.77C6.58499 11.9784 9.6923 11.2596 12.7177 11.1084Z"
      fill="white" />
    <path
      d="M33.8123 17.1395C36.1324 16.9163 38.5698 17.0315 40.7249 17.9819C42.2871 18.6587 43.5914 19.8899 44.3212 21.4091C45.101 23.0399 45.3406 24.8855 45.2208 26.6711C40.7811 26.6687 36.3402 26.6711 31.9005 26.6699C31.5436 26.6663 31.1854 26.6639 30.8285 26.6915C30.925 27.4211 31.4103 28.0451 32.0423 28.4195C33.2011 29.1227 34.6044 29.2487 35.9356 29.2811C38.0198 29.2523 40.1174 28.8719 42.028 28.0403C42.7528 28.9907 43.4777 29.9411 44.205 30.8891C43.1978 31.5827 42.006 31.9571 40.8276 32.2619C38.5185 32.8031 36.1104 32.9135 33.7524 32.6771C31.6157 32.4395 29.4044 31.7807 27.8556 30.2459C26.4315 28.8815 25.7959 26.8871 25.8191 24.9659C25.7739 23.0063 26.5049 21.0107 27.9387 19.6247C29.4887 18.0983 31.6682 17.3711 33.8123 17.1395ZM33.5947 20.8391C32.288 21.1967 31.0424 22.1975 30.848 23.5775C34.058 23.5811 37.2692 23.5811 40.4804 23.5775C40.3264 22.2431 39.1333 21.2699 37.8938 20.8847C36.5089 20.4659 34.9895 20.4623 33.5947 20.8391Z"
      fill="white" />
    <path
      d="M54.3069 17.7947C55.6833 17.1023 57.2761 16.9727 58.7979 17.0675C60.7647 17.1683 62.822 17.7251 64.2473 19.1303C65.7655 20.6147 66.3217 22.7867 66.351 24.8351C66.4048 27.5063 66.3633 30.1799 66.373 32.8511C64.7546 32.8487 63.1349 32.8511 61.5165 32.8499C61.5141 30.2579 61.519 27.6659 61.5141 25.0739C61.4872 23.9015 61.2072 22.6367 60.3161 21.7943C59.4617 20.9819 58.232 20.7263 57.0805 20.7035C55.8862 20.6975 54.599 20.9231 53.6896 21.7403C52.7923 22.5551 52.4696 23.7971 52.4415 24.9587C52.4366 27.5903 52.4464 30.2219 52.4366 32.8523C50.8182 32.8463 49.1997 32.8523 47.5813 32.8499C47.5764 27.7343 47.5886 22.6175 47.5764 17.5019C49.1961 17.4731 50.8182 17.4971 52.4391 17.4899C52.4415 18.1295 52.4391 18.7679 52.4403 19.4075C52.9305 18.7427 53.5576 18.1667 54.3069 17.7947Z"
      fill="white" />
  </g>
  <defs>
    <clipPath id="clip0_299_2">
      <rect width="83" height="33" fill="white" />
    </clipPath>
  </defs>
</svg>